<svg xmlns="http://www.w3.org/2000/svg" xmlns:xlink="http://www.w3.org/1999/xlink" viewBox="0 0 381.29 106.15"><defs><style>.cls-1{fill:url(#Blexr_gradient);}.cls-2{fill:url(#Blexr_gradient-3);}.cls-3{fill:#29394a;}</style><linearGradient id="Blexr_gradient" x1="258.6" y1="104.85" x2="258.6" y2="1.16" gradientUnits="userSpaceOnUse"><stop offset="0" stop-color="#fcb44c"/><stop offset="0.25" stop-color="#f68a35"/><stop offset="0.5" stop-color="#eb5157"/><stop offset="0.75" stop-color="#e23c70"/><stop offset="1" stop-color="#c0418a"/></linearGradient><linearGradient id="Blexr_gradient-3" x1="258.6" y1="104.33" x2="258.6" y2="1.63" xlink:href="#Blexr_gradient"/></defs><title>Asset 1</title><g id="Layer_2" data-name="Layer 2"><g id="Layer_1-2" data-name="Layer 1"><path class="cls-1" d="M245,63.87c-.42.14-.82.29-1.22.46a20.43,20.43,0,0,0-6.64,4.44h0A20.15,20.15,0,0,0,231.26,81a20.65,20.65,0,0,0-.13,2.27h0v22.91H211.82V83.23a39.73,39.73,0,0,1,2.12-12.85c.27-.78.57-1.57.89-2.35a39.71,39.71,0,0,1,8.65-12.88h0a39.59,39.59,0,0,1,23.7-11.39,41.05,41.05,0,0,1,4.35-.24V62.79A20.54,20.54,0,0,0,245,63.87Zm58.29-28c-.27.78-.57,1.57-.89,2.35a39.71,39.71,0,0,1-8.65,12.88h0a39.54,39.54,0,0,1-19.38,10.67,40.1,40.1,0,0,1-4.31.72,41.06,41.06,0,0,1-4.35.24V43.42a20.56,20.56,0,0,0,6.53-1.08q.63-.21,1.21-.46a20.44,20.44,0,0,0,6.64-4.44h0a20.31,20.31,0,0,0,5.51-10,21.33,21.33,0,0,0,.49-4.48h0V.07h19.32V23a39.71,39.71,0,0,1-2.12,12.85Z"/><path class="cls-1" d="M272.22,63.87a20.54,20.54,0,0,0-6.53-1.08V43.51a41.05,41.05,0,0,1,4.35.24,39.59,39.59,0,0,1,23.7,11.39h0A39.71,39.71,0,0,1,302.39,68c.32.78.62,1.57.89,2.35a39.73,39.73,0,0,1,2.12,12.85v22.92H286.07V83.24h0A20.65,20.65,0,0,0,286,81a20.15,20.15,0,0,0-5.87-12.18h0a20.43,20.43,0,0,0-6.64-4.44c-.39-.16-.8-.31-1.22-.46Zm-58.29-28A39.71,39.71,0,0,1,211.81,23V.07h19.32V23h0a21.33,21.33,0,0,0,.49,4.48,20.31,20.31,0,0,0,5.51,10h0a20.44,20.44,0,0,0,6.64,4.44q.59.24,1.21.46a20.56,20.56,0,0,0,6.53,1.08V62.71a41.06,41.06,0,0,1-4.35-.24,40.1,40.1,0,0,1-4.31-.72,39.54,39.54,0,0,1-19.38-10.67h0a39.71,39.71,0,0,1-8.65-12.88c-.32-.78-.62-1.57-.89-2.35Z"/><path class="cls-2" d="M259.77,81.36h-2.33a8.55,8.55,0,0,0-8.55,8.55v16.17h19.44V89.91A8.55,8.55,0,0,0,259.77,81.36Z"/><path class="cls-2" d="M248.88,0V16.17a8.55,8.55,0,0,0,8.55,8.55h2.33a8.55,8.55,0,0,0,8.55-8.55V0Z"/><path class="cls-3" d="M0,13.23H32.71a44.54,44.54,0,0,1,14,1.87,24.69,24.69,0,0,1,8.81,4.82A15.8,15.8,0,0,1,60,26.66a23.66,23.66,0,0,1,1.27,7.53,16.27,16.27,0,0,1-1.15,6.27,19,19,0,0,1-2.9,4.88,19.7,19.7,0,0,1-3.8,3.55,15,15,0,0,1-3.86,2,32.35,32.35,0,0,1,5.07,2.18A21.34,21.34,0,0,1,59.86,57a22.14,22.14,0,0,1,4.1,5.8,17.38,17.38,0,0,1,1.69,7.86q0,12.09-8.39,17.58t-24.56,5.5H0ZM30.17,45.57a12.26,12.26,0,0,0,6.7-1.87q3-1.87,3-6.46A9.83,9.83,0,0,0,39,33a6.87,6.87,0,0,0-2.23-2.71,9.27,9.27,0,0,0-3.14-1.39,14.65,14.65,0,0,0-3.44-.42H20.88V45.57Zm1.57,32.95a29,29,0,0,0,4-.3,11.81,11.81,0,0,0,4-1.27,8,8,0,0,0,3-2.9,9.72,9.72,0,0,0,1.21-5.19A8.91,8.91,0,0,0,42.72,64a8.14,8.14,0,0,0-3-2.84,12.91,12.91,0,0,0-4-1.33,24.35,24.35,0,0,0-4-.36H20.88V78.51Z"/><path class="cls-3" d="M74.07,13.23H95.43V74.89h37.29V93.72H74.07Z"/><path class="cls-3" d="M142,13.23h57.93V31.69H163.35V44.12h30V61.5h-30V75.26h39.1V93.72H142Z"/><path class="cls-3" d="M314.91,13.23h33.31A38.3,38.3,0,0,1,360,14.91a24.83,24.83,0,0,1,9,5,22.29,22.29,0,0,1,5.79,8.27,29.75,29.75,0,0,1,2.05,11.46,26.43,26.43,0,0,1-3.5,13.82A26.86,26.86,0,0,1,364,62.83l17.26,30.89H358.36l-13.64-27.4h-8.93v27.4H314.91Zm31.26,36.33A9.42,9.42,0,0,0,353,47,9.26,9.26,0,0,0,355.7,40a10.05,10.05,0,0,0-2.53-7.24A9.38,9.38,0,0,0,346,30.12H335.79V49.55Z"/></g></g></svg>